<svg xmlns="http://www.w3.org/2000/svg" viewBox="0 0 48 60" x="0px" y="0px"><title>Restaurant vol.1</title><g data-name="Layer 4"><path d="M45.43652,5.415H35.165a.99973.99973,0,0,0-1,1v10.5H24.335a.99974.99974,0,0,0-1,1v11.0581H13.05859a.99974.99974,0,0,0-1,1V40.585H2.56348a1,1,0,1,0,0,2H13.05859a.99973.99973,0,0,0,1-1V30.97314H24.335a.99973.99973,0,0,0,1-1V18.915H35.165a.99974.99974,0,0,0,1-1V7.415h9.27148a1,1,0,0,0,0-2Z"/><path d="M13.62372,16.64252a.99522.99522,0,0,0,.23059.30853l.007.0094a.94176.94176,0,0,0,.14306.087.97573.97573,0,0,0,.16095.0979.9968.9968,0,0,0,.34949.068l.01251.00244h.0011q.02729,0,.05457-.00146L20.0459,16.915a1,1,0,0,0-.10938-1.99707l-3.05163.16717L24.25,6.8667a1.00036,1.00036,0,0,0-1.49023-1.335l-7.3653,8.21863-.16693-3.05164a.99954.99954,0,1,0-1.99609.10938l.29864,5.45922A.99909.99909,0,0,0,13.62372,16.64252Z"/></g><text x="0" y="63" fill="#000000" font-size="5px" font-weight="bold" font-family="'Helvetica Neue', Helvetica, Arial-Unicode, Arial, Sans-serif">Created by BlackActurus</text><text x="0" y="68" fill="#000000" font-size="5px" font-weight="bold" font-family="'Helvetica Neue', Helvetica, Arial-Unicode, Arial, Sans-serif">from the Noun Project</text></svg>