<svg xmlns="http://www.w3.org/2000/svg" viewBox="0 0 48 60" x="0px" y="0px"><title>Restaurant vol.1</title><g data-name="Layer 3"><path d="M45.43652,5.415H35.165a.99973.99973,0,0,0-1,1v10.5H24.335a1,1,0,0,0-1,1v11.0581H13.05859a1.00006,1.00006,0,0,0-1,1V40.585H2.56348a1,1,0,1,0,0,2H13.05859a1,1,0,0,0,1-1V30.97314H24.335a1,1,0,0,0,1-1V18.915H35.165a.99974.99974,0,0,0,1-1V7.415h9.27148a1,1,0,0,0,0-2Z"/><path d="M14.22656,17.43213a.9977.9977,0,0,0,.74512-.33252l7.36548-8.21924.16723,3.05225a1.00006,1.00006,0,0,0,.99756.94531q.02784,0,.05567-.00147a1.00027,1.00027,0,0,0,.94384-1.05322l-.29931-5.46289-.00128-.00494a.99772.99772,0,0,0-.09943-.37616.968.968,0,0,0-.06262-.08393.96976.96976,0,0,0-.16773-.22491.99341.99341,0,0,0-.716-.253l-.00616-.00092-5.46241.29932a1,1,0,0,0,.05371,1.99854q.02784,0,.05567-.00147l3.05176-.16724-7.36524,8.219a1,1,0,0,0,.74414,1.66748Z"/></g><text x="0" y="63" fill="#000000" font-size="5px" font-weight="bold" font-family="'Helvetica Neue', Helvetica, Arial-Unicode, Arial, Sans-serif">Created by BlackActurus</text><text x="0" y="68" fill="#000000" font-size="5px" font-weight="bold" font-family="'Helvetica Neue', Helvetica, Arial-Unicode, Arial, Sans-serif">from the Noun Project</text></svg>