<?xml version="1.0" encoding="UTF-8" standalone="no"?>
<!DOCTYPE svg PUBLIC "-//W3C//DTD SVG 1.1//EN" "http://www.w3.org/Graphics/SVG/1.1/DTD/svg11.dtd">
<svg width="100%" height="100%" viewBox="0 0 512 512" version="1.1" xmlns="http://www.w3.org/2000/svg" xmlns:xlink="http://www.w3.org/1999/xlink" xml:space="preserve" xmlns:serif="http://www.serif.com/" style="fill-rule:evenodd;clip-rule:evenodd;stroke-linejoin:round;stroke-miterlimit:2;">
    <g>
        <path d="M310.972,351.666L310.972,54.973C310.972,24.661 286.311,0 256,0C225.689,0 201.028,24.661 201.028,54.972L201.028,351.665C179.23,368.598 166.405,394.563 166.405,422.404C166.405,471.807 206.598,512 256,512C305.402,512 345.595,471.807 345.595,422.405C345.595,394.564 332.77,368.6 310.972,351.666ZM226.044,54.972C226.044,38.455 239.483,25.016 256,25.016C272.517,25.016 285.956,38.455 285.956,54.972L285.956,86.92L260.161,86.92C253.251,86.92 247.653,92.519 247.653,99.428C247.653,106.337 253.252,111.936 260.161,111.936L285.956,111.936L285.956,124.911L260.161,124.911C253.251,124.911 247.653,130.51 247.653,137.419C247.653,144.328 253.252,149.927 260.161,149.927L285.956,149.927L285.956,173.839L226.044,173.839L226.044,54.972ZM256,486.984C220.39,486.984 191.421,458.015 191.421,422.405C191.421,400.674 202.268,380.524 220.435,368.507C223.937,366.19 226.042,362.275 226.042,358.075L226.042,198.856L285.954,198.856L285.954,358.075C285.954,362.274 288.06,366.19 291.561,368.507C309.729,380.525 320.575,400.675 320.575,422.405C320.579,458.015 291.61,486.984 256,486.984Z" style="fill-rule:nonzero;"/>
        <path d="M293.001,409.897C286.091,409.897 280.493,415.496 280.493,422.405C280.493,435.91 269.506,446.898 256,446.898C249.09,446.898 243.492,452.497 243.492,459.406C243.492,466.315 249.091,471.914 256,471.914C283.299,471.914 305.509,449.706 305.509,422.405C305.509,415.497 299.909,409.897 293.001,409.897Z" style="fill:rgb(161,0,6);fill-rule:nonzero;"/>
    </g>
</svg>
